<svg width="100" height="103" viewBox="0 0 100 103" fill="none" xmlns="http://www.w3.org/2000/svg">
<path d="M69.4425 36.1004L50.283 63.4653C49.9904 63.8846 49.545 64.1725 49.0428 64.2666C48.9347 64.2834 48.8266 64.2899 48.7176 64.2862C48.329 64.2862 47.9488 64.1669 47.6302 63.9424L32.0012 52.9891C31.5819 52.704 31.2949 52.2614 31.2054 51.7629C31.116 51.2634 31.2306 50.75 31.5241 50.3363L50.6641 22.9714C50.9921 22.5045 51.5083 22.2045 52.0767 22.1505C52.6488 22.1085 53.2088 22.3256 53.603 22.7422C55.7358 24.9691 58.0821 26.9827 60.6063 28.7532C63.125 30.5226 65.8169 32.0321 68.6412 33.2565C69.1676 33.4848 69.5618 33.9423 69.709 34.4977C69.8637 35.0446 69.7659 35.6326 69.4425 36.1004Z" fill="#F29200"/>
<path d="M75.6446 10.1471L73.4493 36.5775C73.3925 37.144 73.0934 37.6593 72.6293 37.9891C72.3107 38.2137 71.9305 38.3339 71.541 38.333C71.3602 38.3358 71.1804 38.3106 71.0071 38.2566C69.6746 37.8326 68.3683 37.3285 67.0954 36.7489C64.0466 35.4202 61.1375 33.7895 58.412 31.8831C55.6847 29.9682 53.153 27.7888 50.8552 25.3754C49.8954 24.3831 48.9907 23.3385 48.1455 22.2455C47.8026 21.7796 47.6834 21.1861 47.8213 20.6242C47.9722 20.0717 48.3552 19.6123 48.8705 19.3644L72.935 8.25836C73.5518 7.97789 74.2712 8.04405 74.8265 8.43168C75.3828 8.8193 75.6931 9.47156 75.6446 10.1471V10.1471Z" fill="#C1272D"/>
<path d="M27.1922 11.0254L22.8985 15.2045L23.9095 21.1205C24.0372 21.8389 23.7408 22.5666 23.1464 22.9906C22.8267 23.2292 22.4382 23.3559 22.0394 23.3531C21.7291 23.3494 21.4225 23.2776 21.143 23.1434L15.8374 20.3378L10.5131 23.1434C9.86829 23.4826 9.08744 23.4248 8.49948 22.9953C7.91059 22.5648 7.61894 21.838 7.74659 21.1205L8.75759 15.2045L4.46388 11.0254C3.94674 10.513 3.76224 9.75261 3.9868 9.06029C4.2123 8.36797 4.81237 7.8648 5.53265 7.7623L11.4672 6.90318L14.1201 1.52207C14.4741 0.914543 15.1245 0.540894 15.828 0.540894C16.5315 0.540894 17.1819 0.914543 17.536 1.52207L20.2075 6.90318L26.143 7.7623C26.8633 7.8648 27.4624 8.36797 27.6879 9.06029C27.906 9.75634 27.7149 10.5158 27.1922 11.0254Z" fill="#FFE184"/>
<path d="M99.0782 52.13C98.7297 52.7683 98.0495 53.1531 97.3227 53.1224L91.6164 52.9127L88.1818 57.4925C87.8212 57.9733 87.2556 58.2556 86.6555 58.2556C86.54 58.2528 86.4254 58.2398 86.3117 58.2174C85.5998 58.0823 85.0249 57.5586 84.8236 56.8626L83.2778 51.3669L77.8575 49.535C77.1708 49.2955 76.6769 48.6908 76.5791 47.9696C76.4822 47.2483 76.8092 46.5355 77.4186 46.1377L82.1512 42.9509L82.2276 37.2455C82.2425 36.5197 82.6628 35.8637 83.316 35.5469C83.9691 35.2301 84.7453 35.3111 85.3193 35.7565L89.8227 39.3067L95.2811 37.608C95.9725 37.3974 96.7245 37.5968 97.2221 38.1224C97.7187 38.6479 97.8762 39.4092 97.6283 40.0884L95.6622 45.4509L98.9636 50.1267C99.3782 50.7183 99.423 51.4945 99.0782 52.13V52.13Z" fill="#3498DB"/>
<path d="M9.61674 58.2556C9.38006 58.2566 9.14618 58.2128 8.92535 58.1261C7.94324 57.7441 7.45684 56.639 7.83795 55.6569C19.9885 24.4175 15.9483 17.6695 15.9008 17.6219C15.1777 16.8737 15.1879 15.6829 15.9241 14.9468C16.6602 14.2106 17.8501 14.2004 18.5992 14.9235C19.7025 16.0267 24.5376 23.2397 11.3955 57.0387C11.1104 57.772 10.4041 58.2556 9.61674 58.2556Z" fill="#009245"/>
<path d="M38.2415 96.4219C37.5538 96.421 36.9202 96.0511 36.5819 95.4529C36.2437 94.8537 36.2539 94.1204 36.608 93.5306C59.7939 54.8835 77.5697 54.439 78.3161 54.439C79.3699 54.4334 80.229 55.2832 80.2346 56.3371C80.2402 57.3909 79.3904 58.2501 78.3366 58.2557C78.0617 58.265 61.6621 59.1856 39.8768 95.4967C39.532 96.0707 38.9114 96.4219 38.2415 96.4219V96.4219Z" fill="#FFE184"/>
<path d="M1.98339 92.6053C1.23609 92.6062 0.556812 92.1701 0.246524 91.4899C-0.0637632 90.8107 0.0508475 90.0121 0.540971 89.4474L25.3491 60.8227C26.0386 60.0261 27.2443 59.9394 28.041 60.6299C28.8377 61.3203 28.9244 62.5261 28.2339 63.3227L3.42581 91.9474C3.06334 92.3658 2.53687 92.6053 1.98339 92.6053V92.6053Z" fill="#F29200"/>
<path d="M13.4334 102.147C12.6954 102.146 12.0245 101.719 11.7096 101.051C11.3956 100.384 11.4943 99.5947 11.964 99.0254L38.6804 66.584C39.1062 66.0324 39.7985 65.7566 40.4862 65.8637C41.1748 65.9718 41.7497 66.4461 41.9864 67.1012C42.223 67.7562 42.0833 68.4886 41.623 69.0113L14.9066 101.453C14.5441 101.892 14.0037 102.147 13.4334 102.147Z" fill="#3498DB"/>
<path d="M49.6914 11.9032H47.7831V9.99485C47.7831 8.941 46.9286 8.08654 45.8747 8.08654C44.8209 8.08654 43.9664 8.941 43.9664 9.99485V11.9032H42.0581C41.0043 11.9032 40.1498 12.7576 40.1498 13.8115C40.1498 14.8653 41.0043 15.7198 42.0581 15.7198H43.9664V17.6281C43.9664 18.682 44.8209 19.5364 45.8747 19.5364C46.9286 19.5364 47.7831 18.682 47.7831 17.6281V15.7198H49.6914C50.7452 15.7198 51.5997 14.8653 51.5997 13.8115C51.5997 12.7576 50.7452 11.9032 49.6914 11.9032Z" fill="#009245"/>
<path d="M93.5825 14.3644H91.6742V12.4561C91.6742 11.4022 90.8197 10.5478 89.7659 10.5478C88.712 10.5478 87.8576 11.4022 87.8576 12.4561V14.3644H85.9493C84.8954 14.3644 84.041 15.2188 84.041 16.2727C84.041 17.3266 84.8954 18.181 85.9493 18.181H87.8576V20.0893C87.8576 21.1432 88.712 21.9976 89.7659 21.9976C90.8197 21.9976 91.6742 21.1432 91.6742 20.0893V18.181H93.5825C94.6364 18.181 95.4908 17.3266 95.4908 16.2727C95.4908 15.2188 94.6364 14.3644 93.5825 14.3644Z" fill="#F29200"/>
<path d="M30.6081 39.1725C29.9661 39.1725 29.3679 38.8501 29.0148 38.3143C28.6616 37.7794 28.602 37.102 28.8545 36.5122C32.1596 28.8994 34.0474 20.7472 34.4248 12.4561C34.4248 11.4022 35.2792 10.5478 36.3331 10.5478C37.3869 10.5478 38.2414 11.4022 38.2414 12.4561C37.8845 21.2671 35.8905 29.9347 32.3618 38.0161C32.0608 38.7178 31.3713 39.1725 30.6081 39.1725Z" fill="#F29200"/>
<path d="M40.1497 48.7141C39.4359 48.7131 38.7818 48.3134 38.4557 47.6779C38.1295 47.0424 38.1855 46.2783 38.6001 45.6969L48.1417 32.3387C48.5256 31.7554 49.1993 31.4283 49.8962 31.487C50.5923 31.5457 51.2017 31.9809 51.4831 32.621C51.7636 33.2612 51.6722 34.0038 51.2445 34.5564L41.703 47.9146C41.3442 48.4168 40.7665 48.7141 40.1497 48.7141Z" fill="#FFE184"/>
</svg>
